<?xml version="1.0" encoding="utf-8"?>
<!-- Generator: Adobe Illustrator 16.0.0, SVG Export Plug-In . SVG Version: 6.00 Build 0)  -->
<!DOCTYPE svg PUBLIC "-//W3C//DTD SVG 1.1//EN" "http://www.w3.org/Graphics/SVG/1.1/DTD/svg11.dtd">
<svg version="1.1" id="圖層_1" xmlns="http://www.w3.org/2000/svg" xmlns:xlink="http://www.w3.org/1999/xlink" x="0px" y="0px"
	 width="200px" height="55.845px" viewBox="0 0 200 55.845" enable-background="new 0 0 200 55.845" xml:space="preserve">
<g>
	<g>
		<polygon fill="#FFFFFF" points="20.531,-0.305 0,18.037 35.653,18.037 56.185,-0.305 		"/>
		<polygon fill="#FFFFFF" points="37.233,19.449 37.233,32.164 57.765,13.822 57.765,1.107 		"/>
	</g>
	<g>
		<polygon fill="#FFFFFF" points="20.531,23.184 0,41.525 0,54.653 20.531,36.311 		"/>
		<polygon fill="#FFFFFF" points="57.765,37.311 22.573,37.311 2.041,55.652 37.233,55.652 		"/>
	</g>
</g>
<g>
	<g>
		<polygon fill="#FFFFFF" points="98.278,31.813 105.821,31.813 105.821,17.704 102.742,17.704 102.742,29.606 95.197,29.606 
			95.197,42.625 98.278,42.625 98.278,35.873 100.914,35.873 100.914,42.655 103.954,42.655 103.954,35.873 106.883,35.873 
			106.883,33.666 98.278,33.666 		"/>
		<path fill="#FFFFFF" d="M100.428,15.969H86.801v12.342h13.626V15.969z M89.674,17.969h7.881v1.618h-7.881V17.969z M89.674,21.324
			h7.881v1.574h-7.881V21.324z M89.674,26.311v-1.677h7.881v1.677H89.674z"/>
		<path fill="#FFFFFF" d="M84.384,17.704h-3.078v14.109h7.615v1.853h-8.986v2.207h2.888c-0.03,0.5-0.11,1.011-0.236,1.531
			c-0.206,0.834-0.519,1.511-0.935,2.03c-0.418,0.519-1.049,1.011-1.894,1.471v1.75c2.406-0.647,4.099-1.75,5.082-3.31
			c0.492-0.766,0.866-1.923,1.121-3.473h2.96v6.753H92V29.606h-7.617V17.704z"/>
		<path fill="#FFFFFF" d="M119.938,29.312v-2.574h4.375v-2.339h-4.375V20.75h4.833v-2.338h-4.833v-3.311h-3.477v3.311h-5.143v2.338
			h5.143v3.648h-4.449v2.339h4.449v2.53c0,0.401-0.01,0.838-0.03,1.31h-5.496v2.338h5.32c-0.228,1.608-0.605,2.914-1.135,3.914
			c-0.403,0.746-0.872,1.373-1.407,1.884c-0.535,0.51-1.358,1.117-2.468,1.823v2.134c2.711-1.412,4.69-2.84,5.937-4.281
			c1.248-1.442,2.079-3.266,2.491-5.473h5.54v-2.338h-5.306C119.93,30.116,119.938,29.694,119.938,29.312z"/>
		<path fill="#FFFFFF" d="M134.465,26.251c1.042-2.079,1.675-3.482,1.902-4.207c0.588-1.865,1.026-3.203,1.309-4.017v-1.985h-11.342
			v26.672h3.344V18.381h4.67c-0.412,1.52-0.784,2.684-1.112,3.496c-0.33,0.807-1.089,2.389-2.276,4.743
			c1.66,1.647,2.73,2.909,3.211,3.782c0.481,0.872,0.724,1.996,0.724,3.369c0,0.981-0.131,1.674-0.392,2.083
			c-0.261,0.405-0.7,0.609-1.319,0.609h-2.15l0.458,2.339h2.709c1.217,0,2.062-0.235,2.535-0.707
			c0.794-0.793,1.194-2.284,1.194-4.472c0-1.423-0.267-2.692-0.797-3.81C136.779,29.066,135.89,27.881,134.465,26.251z"/>
		<path fill="#FFFFFF" d="M167.411,28.09v-0.338h-15.235v2.339h11.668c-0.747,2.383-2.028,4.384-3.844,6.003
			c-0.797-0.717-1.427-1.409-1.894-2.075c-0.466-0.667-1.005-1.648-1.614-2.943h-3.476c1.208,2.696,2.859,4.884,4.949,6.562
			c-1.443,0.922-3.673,1.909-6.687,2.957v2.104c3.426-0.931,6.363-2.122,8.81-3.575c2.484,1.481,5.479,2.717,8.986,3.707v-2.133
			c-2.957-0.96-5.275-1.967-6.954-3.016C165.401,35.015,167.165,31.816,167.411,28.09z"/>
		<path fill="#FFFFFF" d="M148.686,22.485h2.711v-2.339h-2.711v-5.09h-3.347v5.09h-3.549v2.339h3.549v6.473l-3.857,0.766v3.442
			l3.857-1.28v8.063h-3.285l0.605,2.338h2.695c1.218,0,2.078-0.209,2.578-0.632c0.502-0.422,0.753-1.144,0.753-2.163v-8.709
			l2.547-0.838v-2.178l-2.547,0.515V22.485z"/>
		<path fill="#FFFFFF" d="M151.337,27.442c2.004-0.882,3.511-1.834,4.523-2.853c1.05-1.049,1.576-2.575,1.576-4.575v-1.781h4.596
			v6.341c-0.019,1.314,0.717,1.971,2.208,1.971h4.009l0.561-2.207h-3.566v-8.312h-11.019v4.134c0,1.295-0.18,2.264-0.537,2.905
			c-0.36,0.644-1.137,1.392-2.335,2.244L151.337,27.442z"/>
		<path fill="#FFFFFF" d="M190.162,22.367c2.2,1.894,5.371,3.153,9.518,3.782v-1.736c-2.092-0.628-3.728-1.277-4.907-1.948
			c-1.179-0.673-2.189-1.528-3.034-2.569c0.128-0.401,0.235-0.809,0.324-1.22h3.521v2.897h3.08v-4.84h-11.462
			c0.137-0.452,0.305-1.025,0.5-1.721h-3.417c-0.462,2.541-1.531,4.442-3.211,5.708v1.706c0.883-0.353,1.414-0.577,1.59-0.676
			c1.563-0.835,2.76-1.858,3.594-3.074h2.314c-0.205,0.783-0.402,1.366-0.589,1.742c-0.186,0.378-0.486,0.778-0.898,1.2
			c-0.649,0.688-1.456,1.241-2.423,1.663c-0.969,0.422-2.32,0.819-4.06,1.191v1.648c2.17-0.294,4.089-0.766,5.754-1.413
			C188.019,24.06,189.287,23.28,190.162,22.367z"/>
		<path fill="#FFFFFF" d="M179.82,19.661c-0.53-1.01-0.976-1.768-1.335-2.274c-0.357-0.504-0.925-1.164-1.701-1.978h-2.592
			c0.914,1.343,1.605,2.761,2.076,4.251H179.82z"/>
		<polygon fill="#FFFFFF" points="180.172,20.44 173.618,23.074 173.618,26.34 180.172,22.573 		"/>
		<path fill="#FFFFFF" d="M190.949,38.521h5.708V26.458h-20.565v12.063h4.424c-1.749,1.326-4.219,2.19-7.416,2.587v1.828
			c3.203-0.285,5.688-0.784,7.455-1.493c1.707-0.684,3.2-1.657,4.485-2.922h2.337c1.711,0.805,3.067,1.557,4.067,2.251
			c1.631,1.143,2.616,1.804,2.961,1.978h5.393C197.386,41.134,194.435,39.728,190.949,38.521z M179.496,28.194h13.76v1.75h-13.76
			V28.194z M179.496,31.548h13.76v1.81h-13.76V31.548z M179.496,34.961h13.76v1.824h-13.76V34.961z"/>
	</g>
	<g>
		<path fill="#FFFFFF" d="M82.835,55.652h-3.048v-6.934h3.048c0.439,0.007,0.803,0.057,1.095,0.151
			c0.496,0.159,0.897,0.453,1.204,0.88c0.247,0.344,0.416,0.718,0.505,1.119c0.089,0.402,0.134,0.784,0.134,1.147
			c0,0.922-0.189,1.704-0.566,2.343C84.694,55.222,83.904,55.652,82.835,55.652z M83.934,50.487
			c-0.228-0.376-0.676-0.564-1.348-0.564h-1.364v4.525h1.364c0.697,0,1.184-0.335,1.458-1.011c0.152-0.369,0.226-0.81,0.226-1.322
			C84.27,51.409,84.158,50.867,83.934,50.487z"/>
		<path fill="#FFFFFF" d="M87.263,48.718h1.468v6.934h-1.468V48.718z"/>
		<path fill="#FFFFFF" d="M96.322,55.652h-1.479l-2.89-4.926v4.926h-1.377v-6.934h1.551l2.818,4.841v-4.841h1.377V55.652z"/>
		<path fill="#FFFFFF" d="M102.53,55.483c-0.39,0.234-0.87,0.352-1.44,0.352c-0.937,0-1.706-0.318-2.303-0.955
			c-0.624-0.64-0.937-1.515-0.937-2.625c0-1.123,0.316-2.023,0.946-2.7c0.631-0.677,1.464-1.016,2.501-1.016
			c0.9,0,1.621,0.224,2.167,0.67c0.545,0.447,0.859,1.004,0.938,1.673h-1.455c-0.112-0.474-0.386-0.805-0.821-0.993
			c-0.243-0.104-0.514-0.155-0.812-0.155c-0.569,0-1.038,0.21-1.404,0.632c-0.366,0.422-0.549,1.056-0.549,1.904
			c0,0.852,0.198,1.456,0.595,1.81c0.397,0.355,0.848,0.532,1.354,0.532c0.496,0,0.902-0.141,1.219-0.421
			c0.318-0.281,0.512-0.648,0.586-1.103h-1.637v-1.158h2.947v3.721h-0.979l-0.149-0.865
			C103.014,55.117,102.758,55.348,102.53,55.483z"/>
		<path fill="#FFFFFF" d="M109.561,55.652h-3.207v-6.934h3.438c0.868,0.013,1.481,0.259,1.843,0.739
			c0.218,0.295,0.327,0.648,0.327,1.059c0,0.423-0.109,0.763-0.327,1.021c-0.122,0.145-0.301,0.276-0.538,0.395
			c0.363,0.129,0.635,0.333,0.819,0.612c0.184,0.279,0.277,0.618,0.277,1.017c0,0.411-0.107,0.779-0.318,1.105
			c-0.134,0.216-0.302,0.397-0.503,0.545c-0.227,0.169-0.496,0.285-0.804,0.348S109.922,55.652,109.561,55.652z M110.262,51.277
			c0.192-0.113,0.287-0.315,0.287-0.606c0-0.324-0.127-0.537-0.384-0.641c-0.221-0.072-0.501-0.108-0.845-0.108h-1.555v1.529h1.738
			C109.814,51.452,110.066,51.393,110.262,51.277z M109.526,52.6h-1.761v1.848h1.738c0.311,0,0.553-0.04,0.725-0.121
			c0.313-0.151,0.471-0.439,0.471-0.866c0-0.361-0.153-0.608-0.456-0.742C110.072,52.641,109.833,52.603,109.526,52.6z"/>
		<path fill="#FFFFFF" d="M117.051,55.845c-1.011,0-1.784-0.269-2.319-0.809c-0.716-0.662-1.075-1.615-1.075-2.86
			c0-1.27,0.358-2.223,1.075-2.86c0.535-0.539,1.308-0.809,2.319-0.809s1.784,0.27,2.319,0.809c0.714,0.637,1.07,1.59,1.07,2.86
			c0,1.245-0.355,2.198-1.07,2.86C118.834,55.576,118.062,55.845,117.051,55.845z M118.447,53.982
			c0.342-0.423,0.514-1.025,0.514-1.806c0-0.778-0.171-1.378-0.516-1.805c-0.344-0.425-0.809-0.637-1.395-0.637
			s-1.053,0.211-1.402,0.635c-0.348,0.424-0.522,1.025-0.522,1.807c0,0.781,0.175,1.383,0.522,1.806
			c0.349,0.423,0.816,0.634,1.402,0.634S118.103,54.406,118.447,53.982z"/>
		<path fill="#FFFFFF" d="M127.78,55.652h-1.479l-2.89-4.926v4.926h-1.377v-6.934h1.55l2.818,4.841v-4.841h1.377V55.652z"/>
		<path fill="#FFFFFF" d="M132.757,48.718h1.469v6.934h-1.469V48.718z"/>
		<path fill="#FFFFFF" d="M141.817,55.652h-1.479l-2.89-4.926v4.926h-1.377v-6.934h1.549l2.819,4.841v-4.841h1.377V55.652z"/>
		<path fill="#FFFFFF" d="M143.163,48.718h1.58l1.535,5.264l1.55-5.264h1.537l-2.415,6.934h-1.395L143.163,48.718z"/>
		<path fill="#FFFFFF" d="M155.661,52.623h-3.438v1.783h3.918v1.247h-5.363v-6.934h5.189v1.228h-3.745v1.472h3.438V52.623z"/>
		<path fill="#FFFFFF" d="M160.353,54.65c0.348,0,0.632-0.038,0.849-0.112c0.413-0.145,0.62-0.413,0.62-0.805
			c0-0.229-0.104-0.407-0.308-0.533c-0.205-0.121-0.526-0.229-0.965-0.324l-0.749-0.164c-0.735-0.164-1.245-0.34-1.526-0.531
			c-0.477-0.32-0.716-0.821-0.716-1.5c0-0.621,0.231-1.137,0.691-1.549c0.461-0.41,1.138-0.616,2.031-0.616
			c0.747,0,1.382,0.194,1.908,0.582c0.527,0.387,0.803,0.949,0.829,1.686h-1.421c-0.025-0.417-0.211-0.713-0.556-0.888
			c-0.23-0.117-0.517-0.176-0.859-0.176c-0.382,0-0.686,0.076-0.913,0.227s-0.34,0.36-0.34,0.63c0,0.247,0.111,0.433,0.336,0.555
			c0.144,0.081,0.451,0.177,0.921,0.286l1.22,0.288c0.535,0.126,0.938,0.293,1.21,0.503c0.422,0.326,0.633,0.798,0.633,1.417
			c0,0.633-0.247,1.16-0.741,1.578c-0.495,0.419-1.194,0.629-2.095,0.629c-0.922,0-1.646-0.207-2.175-0.619
			c-0.528-0.413-0.792-0.98-0.792-1.701h1.412c0.045,0.317,0.133,0.553,0.264,0.71C159.358,54.508,159.77,54.65,160.353,54.65z"/>
		<path fill="#FFFFFF" d="M169.973,48.718v1.228h-2.117v5.706h-1.488v-5.706h-2.127v-1.228H169.973z"/>
		<path fill="#FFFFFF" d="M172.683,55.652h-1.378v-6.934h2.151l1.286,5.453l1.276-5.453h2.127v6.934h-1.378v-4.69
			c0-0.135,0.001-0.324,0.005-0.567c0.003-0.243,0.004-0.43,0.004-0.562l-1.339,5.819h-1.435l-1.33-5.819
			c0,0.131,0.002,0.318,0.005,0.562s0.005,0.432,0.005,0.567V55.652z"/>
		<path fill="#FFFFFF" d="M184.934,52.623h-3.437v1.783h3.917v1.247h-5.362v-6.934h5.189v1.228h-3.744v1.472h3.437V52.623z"/>
		<path fill="#FFFFFF" d="M192.779,55.652h-1.478l-2.89-4.926v4.926h-1.377v-6.934h1.551l2.817,4.841v-4.841h1.377V55.652z"/>
		<path fill="#FFFFFF" d="M199.789,48.718v1.228h-2.116v5.706h-1.489v-5.706h-2.125v-1.228H199.789z"/>
	</g>
</g>
</svg>
