<?xml version="1.0" encoding="utf-8"?>
<!-- Generator: Adobe Illustrator 16.0.0, SVG Export Plug-In . SVG Version: 6.00 Build 0)  -->
<!DOCTYPE svg PUBLIC "-//W3C//DTD SVG 1.1//EN" "http://www.w3.org/Graphics/SVG/1.1/DTD/svg11.dtd">
<svg version="1.1" id="圖層_1" xmlns="http://www.w3.org/2000/svg" xmlns:xlink="http://www.w3.org/1999/xlink" x="0px" y="0px"
	 width="175px" height="60px" viewBox="0 0 175 60" enable-background="new 0 0 175 60" xml:space="preserve">
<g>
	<g>
		<polygon fill="#413C38" points="27.906,25.188 38.902,25.188 38.902,4.62 34.413,4.62 34.413,21.972 23.414,21.972 23.414,40.953 
			27.906,40.953 27.906,31.107 31.749,31.107 31.749,40.995 36.181,40.995 36.181,31.107 40.45,31.107 40.45,27.891 27.906,27.891 
					"/>
		<path fill="#413C38" d="M31.04,2.09H11.174v17.994H31.04V2.09z M15.362,5.006h11.49v2.359h-11.49V5.006z M15.362,9.897h11.49
			v2.294h-11.49V9.897z M15.362,17.167v-2.444h11.49v2.444H15.362z"/>
		<path fill="#413C38" d="M7.65,4.62H3.162v20.569h11.104v2.702H1.164v3.217h4.21c-0.042,0.729-0.159,1.474-0.344,2.231
			c-0.3,1.217-0.756,2.203-1.362,2.96c-0.61,0.757-1.529,1.474-2.761,2.144v2.552c3.507-0.943,5.976-2.552,7.408-4.825
			c0.718-1.116,1.262-2.804,1.634-5.062h4.317v9.845h4.489V21.972H7.65V4.62z"/>
		<path fill="#413C38" d="M59.483,21.542V17.79h6.379v-3.411h-6.379V9.06h7.047V5.65h-7.047V0.824h-5.067V5.65h-7.497v3.41h7.497
			v5.318h-6.486v3.411h6.486v3.688c0,0.585-0.016,1.222-0.043,1.909H46.36v3.41h7.755c-0.332,2.344-0.882,4.246-1.654,5.705
			c-0.588,1.088-1.271,2.001-2.053,2.746c-0.779,0.744-1.979,1.629-3.597,2.659v3.11c3.952-2.059,6.838-4.14,8.655-6.241
			c1.82-2.102,3.031-4.762,3.631-7.979h8.077v-3.41H59.44C59.471,22.715,59.483,22.1,59.483,21.542z"/>
		<path fill="#413C38" d="M80.661,17.081c1.52-3.031,2.441-5.076,2.773-6.134c0.858-2.718,1.495-4.669,1.908-5.855V2.197H68.806
			v38.884h4.875V5.607h6.809c-0.601,2.215-1.143,3.912-1.622,5.095c-0.481,1.176-1.587,3.483-3.318,6.915
			c2.42,2.401,3.981,4.24,4.681,5.512c0.703,1.271,1.055,2.91,1.055,4.911c0,1.431-0.191,2.441-0.571,3.037
			c-0.38,0.59-1.021,0.888-1.924,0.888h-3.135l0.667,3.411h3.95c1.774,0,3.005-0.343,3.695-1.03c1.158-1.157,1.741-3.33,1.741-6.52
			c0-2.075-0.389-3.925-1.162-5.555C84.035,21.184,82.738,19.456,80.661,17.081z"/>
		<path fill="#413C38" d="M128.692,19.762v-0.493h-22.21v3.41h17.01c-1.088,3.474-2.957,6.392-5.604,8.751
			c-1.161-1.045-2.08-2.053-2.76-3.024c-0.681-0.972-1.465-2.402-2.354-4.29h-5.067c1.762,3.931,4.168,7.12,7.215,9.566
			c-2.104,1.344-5.355,2.782-9.749,4.311v3.066c4.994-1.356,9.276-3.094,12.844-5.212c3.622,2.16,7.986,3.962,13.101,5.404v-3.109
			c-4.311-1.399-7.689-2.868-10.139-4.396C125.762,29.857,128.333,25.194,128.692,19.762z"/>
		<path fill="#413C38" d="M101.392,11.591h3.953v-3.41h-3.953V0.76h-4.878v7.42H91.34v3.41h5.174v9.437l-5.624,1.116v5.018
			l5.624-1.866v11.753h-4.788l0.882,3.41h3.929c1.776,0,3.03-0.306,3.759-0.922c0.732-0.615,1.097-1.667,1.097-3.153V23.687
			l3.713-1.222V19.29l-3.713,0.751V11.591z"/>
		<path fill="#413C38" d="M105.258,18.818c2.92-1.287,5.118-2.674,6.594-4.16c1.532-1.529,2.298-3.753,2.298-6.67V5.392h6.7v9.244
			c-0.027,1.916,1.045,2.875,3.22,2.875h5.843l0.818-3.217h-5.2V2.175h-16.064v6.026c0,1.888-0.263,3.3-0.783,4.234
			c-0.524,0.939-1.658,2.029-3.404,3.272L105.258,18.818z"/>
		<path fill="#413C38" d="M161.86,11.418c3.207,2.76,7.83,4.597,13.875,5.513V14.4c-3.051-0.917-5.436-1.863-7.154-2.84
			c-1.72-0.981-3.192-2.228-4.424-3.745c0.187-0.585,0.343-1.179,0.472-1.78h5.134v4.224h4.489V3.205h-16.71
			c0.199-0.658,0.444-1.495,0.729-2.508h-4.982c-0.674,3.703-2.233,6.476-4.681,8.321v2.488c1.286-0.515,2.061-0.842,2.318-0.986
			c2.277-1.217,4.024-2.709,5.24-4.482h3.373c-0.299,1.143-0.587,1.991-0.86,2.54c-0.271,0.552-0.708,1.133-1.309,1.749
			c-0.946,1.003-2.123,1.809-3.533,2.425c-1.413,0.615-3.382,1.194-5.918,1.736v2.402c3.165-0.429,5.961-1.116,8.389-2.059
			C158.735,13.885,160.583,12.75,161.86,11.418z"/>
		<path fill="#413C38" d="M146.782,7.472c-0.772-1.473-1.422-2.577-1.946-3.314c-0.521-0.736-1.348-1.698-2.479-2.883h-3.78
			c1.332,1.958,2.34,4.026,3.026,6.198H146.782z"/>
		<polygon fill="#413C38" points="147.296,8.609 137.74,12.449 137.74,17.21 147.296,11.719 		"/>
		<path fill="#413C38" d="M163.005,34.968h8.323V17.381h-29.982v17.587h6.451c-2.549,1.933-6.15,3.193-10.81,3.771v2.666
			c4.668-0.416,8.29-1.143,10.868-2.177c2.488-0.996,4.666-2.416,6.539-4.26h3.406c2.496,1.174,4.472,2.27,5.928,3.281
			c2.379,1.667,3.814,2.631,4.318,2.884h7.862C172.391,38.778,168.088,36.727,163.005,34.968z M146.31,19.913h20.061v2.552H146.31
			V19.913z M146.31,24.802h20.061v2.639H146.31V24.802z M146.31,29.778h20.061v2.66H146.31V29.778z"/>
	</g>
	<g>
		<path fill="#EC6624" d="M5.392,59.943H0.948V49.834h4.443c0.64,0.01,1.17,0.083,1.596,0.221c0.724,0.231,1.309,0.66,1.755,1.282
			c0.36,0.502,0.605,1.047,0.736,1.631c0.129,0.586,0.196,1.144,0.196,1.673c0,1.344-0.276,2.483-0.826,3.416
			C8.103,59.315,6.95,59.943,5.392,59.943z M6.994,52.413c-0.331-0.548-0.986-0.823-1.965-0.823H3.04v6.597h1.989
			c1.017,0,1.726-0.49,2.126-1.474c0.221-0.539,0.329-1.181,0.329-1.927C7.484,53.757,7.321,52.966,6.994,52.413z"/>
		<path fill="#EC6624" d="M11.847,49.834h2.141v10.109h-2.141V49.834z"/>
		<path fill="#EC6624" d="M25.054,59.943h-2.155l-4.213-7.181v7.181h-2.008V49.834h2.261l4.108,7.058v-7.058h2.008V59.943z"/>
		<path fill="#EC6624" d="M34.104,59.697c-0.568,0.341-1.268,0.513-2.098,0.513c-1.365,0-2.487-0.464-3.358-1.392
			c-0.91-0.933-1.365-2.208-1.365-3.826c0-1.637,0.46-2.949,1.378-3.937c0.92-0.987,2.134-1.481,3.646-1.481
			c1.312,0,2.364,0.326,3.16,0.978c0.794,0.651,1.252,1.464,1.368,2.438h-2.12c-0.164-0.69-0.563-1.173-1.198-1.448
			c-0.354-0.15-0.749-0.226-1.182-0.226c-0.831,0-1.513,0.307-2.047,0.922c-0.534,0.615-0.801,1.539-0.801,2.775
			c0,1.242,0.289,2.123,0.868,2.64c0.579,0.518,1.237,0.774,1.974,0.774c0.724,0,1.315-0.205,1.776-0.613
			c0.463-0.41,0.747-0.945,0.855-1.608h-2.386v-1.688h4.296v5.425h-1.426l-0.217-1.261C34.81,59.162,34.437,59.5,34.104,59.697z"/>
		<path fill="#EC6624" d="M44.354,59.943h-4.675V49.834h5.012c1.264,0.019,2.158,0.378,2.686,1.077
			c0.318,0.43,0.477,0.944,0.477,1.542c0,0.617-0.158,1.113-0.477,1.488c-0.177,0.211-0.438,0.402-0.783,0.576
			c0.527,0.188,0.925,0.484,1.194,0.891c0.268,0.408,0.403,0.901,0.403,1.483c0,0.598-0.155,1.135-0.463,1.611
			c-0.195,0.314-0.44,0.58-0.734,0.794c-0.331,0.247-0.723,0.416-1.172,0.507C45.371,59.898,44.88,59.943,44.354,59.943z
			 M45.376,53.564c0.279-0.164,0.419-0.458,0.419-0.883c0-0.472-0.186-0.783-0.56-0.935c-0.322-0.104-0.731-0.157-1.231-0.157
			h-2.267v2.229h2.534C44.723,53.819,45.091,53.734,45.376,53.564z M44.304,55.493h-2.567v2.694h2.534
			c0.453,0,0.805-0.059,1.057-0.177c0.457-0.22,0.686-0.64,0.686-1.262c0-0.526-0.223-0.887-0.665-1.083
			C45.1,55.554,44.752,55.498,44.304,55.493z"/>
		<path fill="#EC6624" d="M55.273,60.224c-1.474,0-2.6-0.392-3.38-1.18c-1.044-0.963-1.567-2.353-1.567-4.168
			c0-1.852,0.523-3.241,1.567-4.17c0.78-0.786,1.906-1.179,3.38-1.179c1.475,0,2.601,0.394,3.381,1.179
			c1.041,0.929,1.559,2.318,1.559,4.17c0,1.815-0.518,3.205-1.559,4.168C57.874,59.832,56.748,60.224,55.273,60.224z M57.311,57.509
			c0.498-0.616,0.749-1.495,0.749-2.633c0-1.135-0.251-2.01-0.753-2.631c-0.501-0.619-1.179-0.928-2.034-0.928
			c-0.853,0-1.535,0.308-2.043,0.925c-0.507,0.618-0.762,1.495-0.762,2.634c0,1.138,0.255,2.017,0.762,2.633
			c0.509,0.617,1.19,0.925,2.043,0.925C56.127,58.434,56.807,58.126,57.311,57.509z"/>
		<path fill="#EC6624" d="M70.916,59.943H68.76l-4.212-7.181v7.181H62.54V49.834h2.259l4.109,7.058v-7.058h2.008V59.943z"/>
		<path fill="#EC6624" d="M78.171,49.834h2.141v10.109h-2.141V49.834z"/>
		<path fill="#EC6624" d="M91.38,59.943h-2.157l-4.212-7.181v7.181h-2.008V49.834h2.26l4.109,7.058v-7.058h2.008V59.943z"/>
		<path fill="#EC6624" d="M93.341,49.834h2.303l2.238,7.674l2.261-7.674h2.24l-3.521,10.109h-2.035L93.341,49.834z"/>
		<path fill="#EC6624" d="M111.561,55.527h-5.011v2.599h5.712v1.817h-7.818V49.834h7.565v1.79h-5.459v2.147h5.011V55.527z"/>
		<path fill="#EC6624" d="M118.401,58.483c0.507,0,0.921-0.056,1.238-0.164c0.602-0.21,0.903-0.602,0.903-1.174
			c0-0.333-0.151-0.593-0.449-0.775c-0.298-0.177-0.767-0.335-1.406-0.473l-1.092-0.24c-1.073-0.238-1.815-0.495-2.225-0.774
			c-0.695-0.467-1.043-1.196-1.043-2.188c0-0.905,0.336-1.657,1.007-2.257c0.673-0.599,1.659-0.898,2.96-0.898
			c1.088,0,2.015,0.283,2.782,0.848c0.768,0.564,1.17,1.383,1.208,2.458h-2.072c-0.037-0.608-0.308-1.041-0.812-1.295
			c-0.334-0.169-0.753-0.255-1.252-0.255c-0.557,0-0.999,0.11-1.33,0.329c-0.331,0.221-0.496,0.526-0.496,0.92
			c0,0.36,0.163,0.631,0.49,0.809c0.209,0.119,0.657,0.258,1.343,0.418l1.778,0.418c0.78,0.183,1.367,0.428,1.764,0.734
			c0.615,0.476,0.923,1.164,0.923,2.064c0,0.923-0.36,1.691-1.08,2.301c-0.722,0.61-1.74,0.917-3.056,0.917
			c-1.345,0-2.399-0.302-3.17-0.902c-0.769-0.602-1.155-1.428-1.155-2.48h2.058c0.065,0.462,0.194,0.807,0.384,1.036
			C116.952,58.274,117.551,58.483,118.401,58.483z"/>
		<path fill="#EC6624" d="M132.427,49.834v1.79h-3.085v8.319h-2.17v-8.319h-3.101v-1.79H132.427z"/>
		<path fill="#EC6624" d="M136.376,59.943h-2.008V49.834h3.136l1.875,7.949l1.86-7.949h3.101v10.109h-2.009v-6.837
			c0-0.197,0.001-0.472,0.008-0.827c0.004-0.355,0.006-0.627,0.006-0.819l-1.953,8.483h-2.091l-1.94-8.483
			c0,0.191,0.003,0.464,0.007,0.819c0.004,0.354,0.006,0.629,0.006,0.827V59.943z"/>
		<path fill="#EC6624" d="M154.238,55.527h-5.011v2.599h5.71v1.817h-7.816V49.834h7.565v1.79h-5.459v2.147h5.011V55.527z"/>
		<path fill="#EC6624" d="M165.674,59.943h-2.154l-4.213-7.181v7.181h-2.008V49.834h2.26l4.108,7.058v-7.058h2.007V59.943z"/>
		<path fill="#EC6624" d="M175.895,49.834v1.79h-3.086v8.319h-2.17v-8.319h-3.099v-1.79H175.895z"/>
	</g>
</g>
</svg>
