<?xml version="1.0" encoding="utf-8"?>
<!-- Generator: Adobe Illustrator 16.0.0, SVG Export Plug-In . SVG Version: 6.00 Build 0)  -->
<!DOCTYPE svg PUBLIC "-//W3C//DTD SVG 1.1//EN" "http://www.w3.org/Graphics/SVG/1.1/DTD/svg11.dtd">
<svg version="1.1" id="圖層_1" xmlns="http://www.w3.org/2000/svg" xmlns:xlink="http://www.w3.org/1999/xlink" x="0px" y="0px"
	 width="250px" height="56.103px" viewBox="0 0 250 56.103" enable-background="new 0 0 250 56.103" xml:space="preserve">
<g>
	<g>
		<g>
			<path fill="#EC6624" d="M5.7,46.746c0.681,0.221,1.232,0.625,1.656,1.21c0.339,0.475,0.57,0.987,0.693,1.539
				c0.125,0.552,0.186,1.079,0.186,1.579c0,1.269-0.26,2.342-0.779,3.222c-0.704,1.188-1.792,1.778-3.261,1.778H0V46.54h4.195
				C4.796,46.548,5.299,46.616,5.7,46.746z M1.975,48.195v6.223h1.876c0.96,0,1.629-0.462,2.008-1.391
				c0.208-0.509,0.313-1.114,0.313-1.818c0-0.968-0.157-1.714-0.467-2.234c-0.311-0.519-0.929-0.779-1.854-0.779H1.975z"/>
			<path fill="#EC6624" d="M12.263,56.074h-2.021V46.54h2.021V56.074z"/>
			<path fill="#EC6624" d="M14.776,46.54h2.131l3.861,6.647V46.54h1.894v9.534h-2.031l-3.959-6.765v6.765h-1.896V46.54z"/>
			<path fill="#EC6624" d="M31.759,49.516c-0.154-0.652-0.531-1.105-1.129-1.366c-0.333-0.142-0.706-0.212-1.114-0.212
				c-0.783,0-1.426,0.289-1.931,0.868c-0.504,0.578-0.756,1.449-0.756,2.611c0,1.17,0.273,1.999,0.819,2.485
				c0.545,0.487,1.167,0.73,1.861,0.73c0.681,0,1.24-0.191,1.675-0.577c0.435-0.383,0.703-0.886,0.806-1.507h-2.252v-1.592h4.053
				v5.117h-1.348l-0.204-1.189c-0.392,0.45-0.744,0.769-1.056,0.952c-0.536,0.322-1.196,0.483-1.979,0.483
				c-1.29,0-2.345-0.438-3.168-1.313c-0.858-0.879-1.287-2.08-1.287-3.607c0-1.543,0.433-2.779,1.3-3.711
				c0.868-0.932,2.014-1.396,3.438-1.396c1.238,0,2.229,0.306,2.98,0.921c0.75,0.616,1.179,1.382,1.29,2.301H31.759z"/>
			<path fill="#EC6624" d="M43.632,47.556c0.298,0.404,0.448,0.89,0.448,1.454c0,0.583-0.152,1.052-0.452,1.404
				c-0.167,0.2-0.415,0.38-0.741,0.543c0.496,0.177,0.871,0.458,1.125,0.841c0.252,0.384,0.377,0.85,0.377,1.398
				c0,0.564-0.144,1.072-0.432,1.521c-0.186,0.297-0.415,0.547-0.689,0.749c-0.311,0.233-0.677,0.394-1.1,0.479
				c-0.422,0.087-0.878,0.129-1.374,0.129h-4.382V46.54h4.701C42.297,46.556,43.139,46.896,43.632,47.556z M38.353,48.195v2.104
				h2.364c0.421,0,0.765-0.078,1.027-0.237c0.264-0.155,0.396-0.438,0.396-0.837c0-0.444-0.175-0.738-0.522-0.882
				c-0.3-0.097-0.683-0.147-1.15-0.147H38.353z M38.353,51.875v2.543h2.36c0.422,0,0.75-0.056,0.985-0.169
				c0.427-0.206,0.64-0.604,0.64-1.188c0-0.496-0.207-0.837-0.619-1.022c-0.231-0.104-0.556-0.159-0.972-0.163H38.353z"/>
			<path fill="#EC6624" d="M54.274,55.227c-0.735,0.743-1.797,1.114-3.186,1.114c-1.391,0-2.454-0.371-3.187-1.114
				c-0.985-0.91-1.479-2.22-1.479-3.933c0-1.747,0.494-3.058,1.479-3.934c0.733-0.742,1.795-1.112,3.187-1.112
				c1.389,0,2.451,0.37,3.186,1.112c0.981,0.876,1.473,2.187,1.473,3.934C55.747,53.007,55.256,54.316,54.274,55.227z
				 M53.004,53.779c0.473-0.583,0.71-1.412,0.71-2.485c0-1.069-0.237-1.896-0.71-2.479c-0.473-0.586-1.112-0.877-1.916-0.877
				c-0.806,0-1.447,0.291-1.927,0.872c-0.479,0.584-0.72,1.411-0.72,2.484s0.241,1.902,0.72,2.485
				c0.479,0.581,1.121,0.873,1.927,0.873C51.893,54.652,52.532,54.36,53.004,53.779z"/>
			<path fill="#EC6624" d="M57.913,46.54h2.131l3.861,6.647V46.54h1.893v9.534h-2.03l-3.959-6.765v6.765h-1.896V46.54z"/>
			<path fill="#EC6624" d="M75.043,46.54h2.3l3.44,9.534H78.58l-0.642-1.96h-3.582l-0.661,1.96h-2.124L75.043,46.54z M74.908,52.472
				h2.491L76.17,48.72L74.908,52.472z"/>
			<path fill="#EC6624" d="M88.904,46.785c0.358,0.15,0.662,0.373,0.91,0.667c0.206,0.241,0.368,0.508,0.489,0.802
				c0.121,0.293,0.179,0.627,0.179,1.001c0,0.454-0.117,0.9-0.35,1.337c-0.231,0.438-0.617,0.748-1.154,0.93
				c0.448,0.176,0.767,0.427,0.954,0.752c0.188,0.327,0.282,0.822,0.282,1.491v0.642c0,0.436,0.017,0.73,0.052,0.885
				c0.055,0.245,0.179,0.427,0.375,0.544v0.239h-2.243c-0.061-0.21-0.104-0.381-0.131-0.51c-0.052-0.269-0.081-0.542-0.085-0.823
				l-0.015-0.885c-0.008-0.608-0.114-1.015-0.32-1.217c-0.206-0.202-0.591-0.304-1.158-0.304h-1.984v3.738h-1.987V46.54h4.653
				C88.033,46.552,88.545,46.633,88.904,46.785z M84.703,48.195v2.562h2.187c0.436,0,0.76-0.052,0.979-0.156
				c0.383-0.179,0.575-0.537,0.575-1.072c0-0.578-0.185-0.966-0.556-1.165c-0.21-0.111-0.523-0.168-0.942-0.168H84.703z"/>
			<path fill="#EC6624" d="M100.144,46.54v1.688h-2.909v7.846h-2.045v-7.846h-2.922V46.54H100.144z"/>
		</g>
	</g>
	<g>
		<g>
			<path fill="#413C38" d="M108.225,5.05h-9.166v1.918h-4.744V5.05h-9.305V2.306h9.305V0.366h4.744v1.939h9.166V0.366h4.765v1.939
				h9.487V5.05h-9.487v1.918h-4.765V5.05z M101.321,31.921c-1.575,0.995-3.649,1.951-6.219,2.868l16.715-0.304
				c-0.202-0.229-0.76-0.809-1.675-1.735h3.493c2.516,1.602,4.562,3.392,6.138,5.37h-5.29c-0.417-0.688-0.733-1.186-0.95-1.494
				l-24.769,0.947v-2.844c2.529-0.89,4.576-1.825,6.135-2.809H85.29v-2.259h37.126v2.259H101.321z M85.514,18.659v-1.838
				c1.749-0.337,3.127-0.889,4.138-1.655h4.645C92.411,16.808,89.482,17.972,85.514,18.659z M93.244,8.604V7.473h3.938v1.131h5.692
				v2.283h-5.692v1.473h6.723v2.281H86.138v-2.281h7.106v-1.473h-6.036V8.604H93.244z M93.244,18.213V16.72h3.938v1.493h4.823v2.283
				h-4.823v1.473l6.419-0.264v1.919l-17.241,1.677v-2.908l6.883-0.262v-1.635h-5.127v-2.283H93.244z M117.895,27.924H89.368v-2.261
				h28.526V27.924z M96.495,15.166h3.169c1.668,0.631,3.345,1.439,5.028,2.422h-4.542C99.113,16.727,97.895,15.92,96.495,15.166z
				 M111.576,17.567c0.471,0.283,1.05,0.634,1.737,1.05v4.06c-0.606-0.621-1.441-1.313-2.504-2.081l-0.464-0.344
				c-1.32,1.927-3.338,3.574-6.056,4.946l0.018-2.241c1.523-1.426,2.572-3.001,3.151-4.724c-0.485-0.311-1.38-0.835-2.687-1.574
				v-2.18c1.36,0.484,2.437,0.901,3.23,1.251c0.094-0.983,0.156-1.876,0.183-2.685h-3.332v-2.847h3.351V7.515h3.936v2.685h5.857
				v11.548h1.533v-4.2l2.747,0.605v4.321c0,1.412-0.54,2.118-1.617,2.118h-4.663c-1.17,0-1.756-0.672-1.756-2.018v-9.528h-2.141
				C112.02,14.822,111.844,16.33,111.576,17.567z"/>
			<path fill="#413C38" d="M142.912,27.702c-4.267-3.931-7.356-9.414-9.265-16.454h5.106c0.942,3.177,1.948,5.738,3.018,7.682
				c1.071,1.944,2.547,3.9,4.432,5.865c1.87-1.898,3.372-3.987,4.5-6.268c1.131-2.283,2.114-5.191,2.949-8.732h-25.478v-3.21h35.894
				v3.21h-4.986c-1.427,7.498-4.597,13.485-9.507,17.967c3.875,2.881,8.909,5.317,15.099,7.309v3.211
				c-7.725-2.222-13.856-4.867-18.39-7.935c-5.157,3.541-11.347,6.178-18.574,7.914v-3.148c2.826-0.956,4.921-1.721,6.288-2.291
				c1.366-0.573,2.831-1.295,4.391-2.173C140.113,29.681,141.619,28.7,142.912,27.702z M142.831,0.408h3.715
				c1.4,1.762,2.516,3.619,3.351,5.571h-5.977C143.678,3.409,143.316,1.552,142.831,0.408z"/>
			<path fill="#413C38" d="M191.043,31.314v3.635c0,2.006-1.063,3.008-3.188,3.008h-7.49l-0.849-2.845h6.583v-3.798h-13.891v-2.563
				h13.891v-2.845h-16.252v-2.565h16.252v-2.826h-13.931v-2.563h13.931v-2.181h-12.538V7.897h12.538V5.455h-16.069V2.71h16.069
				V0.388h4.945V2.71h16.111v2.745h-16.111v2.442h12.559v7.873h-12.559v2.181h13.204v5.39h2.866v2.565h-2.866v5.408H191.043z
				 M186.098,10.28h-7.974v3.109h7.974V10.28z M191.043,13.39h7.975V10.28h-7.975V13.39z M191.043,23.341h8.621v-2.826h-8.621
				V23.341z M191.043,28.751h8.621v-2.845h-8.621V28.751z"/>
			<path fill="#413C38" d="M228.802,7.252h4.22V0.348h4.582v6.904h12.011v2.847h-37.468V7.252h12.072V0.348h4.583V7.252z
				 M225.853,28.024h-13.061V25.18h15.464v-2.848h-12.8v-2.847h12.8v-2.727h-14.233v-2.845h7.975
				c-0.256-1.05-0.715-2.113-1.373-3.19h3.33c0.902,0.943,1.716,2.006,2.443,3.19h8.217c0.093-0.094,0.208-0.217,0.343-0.364
				c0.794-0.82,1.433-1.756,1.918-2.806h3.352c-0.202,1.037-0.519,2.094-0.95,3.17h8.542v2.845h-14.436v2.727h12.981v2.847h-12.981
				v2.848h15.869v2.845h-13.567c4.011,3.028,8.708,5.128,14.092,6.3v2.604c-6.877-1.48-12.342-3.601-16.393-6.357v7.67h-5.127
				v-7.489c-3.607,2.368-8.903,4.412-15.889,6.137v-2.807c3.23-0.887,5.794-1.758,7.692-2.613
				C221.958,30.613,223.889,29.465,225.853,28.024z M215.76,1.338h3.774c1.131,1.654,2.066,3.302,2.808,4.946h-5.007
				C217.091,5.084,216.566,3.436,215.76,1.338z M245.76,1.338c-0.094,0.442-0.155,0.78-0.182,1.007
				c-0.244,1.469-0.491,2.471-0.748,3.01c-0.135,0.296-0.262,0.604-0.383,0.93h-5.23c1.091-1.279,2.047-2.923,2.868-4.929
				L245.76,1.338z"/>
		</g>
		<g>
			<g>
				<polygon fill="#413C38" points="25.432,23.422 35.783,23.422 35.783,4.062 31.557,4.062 31.557,20.394 21.204,20.394 
					21.204,38.259 25.432,38.259 25.432,28.993 29.049,28.993 29.049,38.298 33.22,38.298 33.22,28.993 37.239,28.993 
					37.239,25.965 25.432,25.965 				"/>
				<path fill="#413C38" d="M28.382,1.681H9.684v16.937h18.698V1.681z M13.625,4.426H24.44v2.22H13.625V4.426z M13.625,9.029H24.44
					v2.158H13.625V9.029z M13.625,15.872V13.57H24.44v2.302H13.625z"/>
				<path fill="#413C38" d="M6.367,4.062H2.142v19.36h10.451v2.543H0.261v3.028h3.962c-0.041,0.688-0.15,1.387-0.323,2.1
					c-0.283,1.146-0.712,2.073-1.283,2.786c-0.575,0.713-1.439,1.387-2.599,2.019v2.4c3.302-0.887,5.627-2.4,6.973-4.539
					c0.676-1.051,1.188-2.642,1.537-4.766h4.063v9.266h4.225V20.394H6.367V4.062z"/>
			</g>
			<path fill="#413C38" d="M50.296,21.727c0.027-0.647,0.042-1.246,0.042-1.797v-3.473h-6.099v-3.21h6.099V8.241h-7.046v-3.21h7.046
				V0.489h4.763v4.542h6.623v3.21h-6.623v5.006h5.996v3.21h-5.996v3.533c0,0.524-0.012,1.104-0.04,1.736h7.269v3.209h-7.592
				c-0.567,3.028-1.704,5.532-3.412,7.511c-1.71,1.979-4.421,3.937-8.137,5.873v-2.926c1.521-0.969,2.649-1.804,3.383-2.504
				c0.733-0.7,1.376-1.562,1.928-2.584c0.727-1.373,1.243-3.162,1.553-5.37h-7.287v-3.209H50.296z M68.447,4.99v33.392h-4.584V1.78
				h15.544v2.727c-0.39,1.116-0.989,2.953-1.797,5.511c-0.308,0.996-1.177,2.921-2.604,5.773c1.951,2.234,3.17,3.862,3.655,4.884
				c0.727,1.537,1.089,3.278,1.089,5.229c0,3.002-0.546,5.047-1.635,6.138c-0.646,0.646-1.804,0.969-3.472,0.969h-3.669l-0.627-3.21
				h2.903c0.848,0,1.449-0.279,1.806-0.837c0.356-0.561,0.535-1.512,0.535-2.857c0-1.885-0.329-3.426-0.989-4.624
				c-0.661-1.195-2.126-2.926-4.401-5.188c1.628-3.228,2.668-5.398,3.12-6.511c0.45-1.11,0.958-2.707,1.522-4.794H68.447z"/>
		</g>
	</g>
</g>
</svg>
