<?xml version="1.0" encoding="utf-8"?>
<!-- Generator: Adobe Illustrator 16.0.0, SVG Export Plug-In . SVG Version: 6.00 Build 0)  -->
<!DOCTYPE svg PUBLIC "-//W3C//DTD SVG 1.1//EN" "http://www.w3.org/Graphics/SVG/1.1/DTD/svg11.dtd">
<svg version="1.1" id="圖層_1" xmlns="http://www.w3.org/2000/svg" xmlns:xlink="http://www.w3.org/1999/xlink" x="0px" y="0px"
	 width="250px" height="55.703px" viewBox="0 0 250 55.703" enable-background="new 0 0 250 55.703" xml:space="preserve">
<g>
	<g>
		<g>
			<path fill="#EC6624" d="M5.711,46.228c0.68,0.219,1.231,0.623,1.653,1.208c0.339,0.473,0.57,0.986,0.692,1.537
				c0.125,0.551,0.185,1.078,0.185,1.577c0,1.267-0.259,2.339-0.777,3.218c-0.703,1.184-1.789,1.775-3.257,1.775H0.019v-9.522h4.188
				C4.808,46.03,5.31,46.099,5.711,46.228z M1.99,47.675v6.214h1.874c0.958,0,1.626-0.463,2.004-1.39
				c0.208-0.508,0.312-1.112,0.312-1.814c0-0.969-0.156-1.714-0.465-2.232c-0.31-0.519-0.928-0.777-1.851-0.777H1.99z"/>
			<path fill="#EC6624" d="M13.235,55.542h-2.017v-9.522h2.017V55.542z"/>
			<path fill="#EC6624" d="M16.719,46.021h2.128l3.856,6.639v-6.639h1.89v9.522h-2.028l-3.954-6.756v6.756h-1.892V46.021z"/>
			<path fill="#EC6624" d="M34.646,48.992c-0.154-0.65-0.53-1.104-1.126-1.363c-0.333-0.142-0.706-0.213-1.113-0.213
				c-0.782,0-1.425,0.289-1.928,0.867c-0.503,0.579-0.755,1.448-0.755,2.609c0,1.168,0.273,1.996,0.818,2.481
				s1.165,0.729,1.859,0.729c0.68,0,1.237-0.191,1.672-0.576c0.435-0.383,0.703-0.884,0.805-1.506h-2.249v-1.588h4.047v5.109h-1.345
				l-0.204-1.188c-0.391,0.45-0.743,0.768-1.054,0.952c-0.535,0.32-1.194,0.482-1.976,0.482c-1.288,0-2.342-0.438-3.164-1.311
				c-0.856-0.879-1.285-2.078-1.285-3.602c0-1.542,0.433-2.777,1.298-3.707c0.867-0.93,2.011-1.394,3.434-1.394
				c1.235,0,2.225,0.306,2.976,0.92c0.749,0.614,1.178,1.38,1.288,2.296H34.646z"/>
			<path fill="#EC6624" d="M47.477,47.036c0.297,0.404,0.447,0.889,0.447,1.453c0,0.581-0.152,1.049-0.451,1.402
				c-0.166,0.198-0.414,0.379-0.741,0.543c0.495,0.177,0.87,0.456,1.123,0.84c0.252,0.383,0.376,0.849,0.376,1.396
				c0,0.563-0.143,1.069-0.43,1.516c-0.185,0.298-0.414,0.548-0.688,0.75c-0.31,0.233-0.675,0.393-1.098,0.479
				c-0.422,0.087-0.877,0.129-1.373,0.129h-4.375v-9.522h4.694C46.144,46.038,46.984,46.376,47.477,47.036z M42.205,47.675v2.1
				h2.361c0.42,0,0.763-0.079,1.025-0.236c0.264-0.157,0.395-0.437,0.395-0.837c0-0.442-0.174-0.736-0.522-0.879
				c-0.3-0.099-0.682-0.147-1.148-0.147H42.205z M42.205,51.349v2.54h2.357c0.422,0,0.748-0.056,0.983-0.168
				c0.426-0.207,0.638-0.603,0.638-1.188c0-0.496-0.206-0.836-0.617-1.021c-0.231-0.104-0.555-0.157-0.971-0.163H42.205z"/>
			<path fill="#EC6624" d="M59.076,54.697c-0.734,0.741-1.795,1.111-3.182,1.111c-1.389,0-2.45-0.37-3.182-1.111
				c-0.984-0.91-1.477-2.219-1.477-3.928c0-1.745,0.493-3.054,1.477-3.928c0.732-0.74,1.793-1.11,3.182-1.11
				c1.387,0,2.448,0.37,3.182,1.11c0.979,0.875,1.47,2.184,1.47,3.928C60.546,52.478,60.055,53.787,59.076,54.697z M57.807,53.25
				c0.472-0.58,0.709-1.409,0.709-2.48c0-1.068-0.237-1.894-0.709-2.477c-0.473-0.584-1.11-0.876-1.914-0.876
				c-0.805,0-1.445,0.291-1.924,0.873s-0.719,1.408-0.719,2.48c0,1.071,0.241,1.9,0.719,2.48c0.479,0.582,1.119,0.872,1.924,0.872
				C56.697,54.122,57.334,53.832,57.807,53.25z"/>
			<path fill="#EC6624" d="M63.681,46.021h2.127l3.856,6.639v-6.639h1.89v9.522h-2.028l-3.954-6.756v6.756h-1.892V46.021z"/>
			<path fill="#EC6624" d="M82.731,46.021h2.296l3.436,9.522h-2.201l-0.64-1.957h-3.578l-0.659,1.957h-2.122L82.731,46.021z
				 M82.596,51.945h2.487l-1.227-3.747L82.596,51.945z"/>
			<path fill="#EC6624" d="M92.78,52.603c0.063,0.436,0.185,0.76,0.368,0.975c0.337,0.393,0.913,0.59,1.73,0.59
				c0.489,0,0.887-0.053,1.19-0.156c0.58-0.198,0.869-0.566,0.869-1.105c0-0.313-0.141-0.557-0.426-0.729
				c-0.283-0.168-0.732-0.316-1.348-0.445l-1.053-0.227c-1.034-0.225-1.743-0.467-2.129-0.73C91.326,50.335,91,49.648,91,48.715
				c0-0.853,0.32-1.561,0.961-2.125c0.64-0.565,1.58-0.847,2.821-0.847c1.036,0,1.919,0.266,2.652,0.798
				c0.73,0.532,1.115,1.304,1.15,2.316h-1.951c-0.036-0.572-0.298-0.979-0.784-1.221c-0.325-0.159-0.726-0.239-1.208-0.239
				c-0.536,0-0.965,0.104-1.284,0.311c-0.32,0.207-0.48,0.495-0.48,0.865c0,0.34,0.158,0.595,0.472,0.763
				c0.204,0.112,0.634,0.243,1.292,0.394l1.704,0.394c0.749,0.173,1.308,0.402,1.68,0.691c0.578,0.447,0.87,1.097,0.87,1.945
				c0,0.869-0.343,1.592-1.029,2.167c-0.687,0.575-1.656,0.862-2.908,0.862c-1.279,0-2.284-0.283-3.018-0.85
				c-0.732-0.566-1.098-1.346-1.098-2.336H92.78z"/>
			<path fill="#EC6624" d="M103.401,52.603c0.063,0.436,0.186,0.76,0.369,0.975c0.337,0.393,0.913,0.59,1.73,0.59
				c0.489,0,0.886-0.053,1.189-0.156c0.581-0.198,0.87-0.566,0.87-1.105c0-0.313-0.141-0.557-0.427-0.729
				c-0.282-0.168-0.731-0.316-1.348-0.445l-1.052-0.227c-1.033-0.225-1.743-0.467-2.129-0.73c-0.655-0.439-0.981-1.127-0.981-2.06
				c0-0.853,0.32-1.561,0.96-2.125c0.641-0.565,1.581-0.847,2.822-0.847c1.036,0,1.919,0.266,2.652,0.798
				c0.73,0.532,1.114,1.304,1.15,2.316h-1.951c-0.036-0.572-0.298-0.979-0.784-1.221c-0.325-0.159-0.726-0.239-1.209-0.239
				c-0.536,0-0.964,0.104-1.283,0.311c-0.32,0.207-0.48,0.495-0.48,0.865c0,0.34,0.158,0.595,0.472,0.763
				c0.204,0.112,0.635,0.243,1.292,0.394l1.704,0.394c0.749,0.173,1.309,0.402,1.681,0.691c0.578,0.447,0.869,1.097,0.869,1.945
				c0,0.869-0.343,1.592-1.03,2.167c-0.686,0.575-1.655,0.862-2.907,0.862c-1.279,0-2.284-0.283-3.018-0.85
				c-0.732-0.566-1.099-1.346-1.099-2.336H103.401z"/>
			<path fill="#EC6624" d="M119.74,47.707h-5.141v2.022h4.718v1.653h-4.718v2.449h5.378v1.711h-7.36v-9.522h7.124V47.707z"/>
			<path fill="#EC6624" d="M130.232,46.021v1.687h-2.905v7.835h-2.042v-7.835h-2.918v-1.687H130.232z"/>
			<path fill="#EC6624" d="M144.852,46.021h2.919v9.522h-1.89v-6.44c0-0.185,0.002-0.444,0.006-0.778
				c0.004-0.334,0.006-0.591,0.006-0.771l-1.84,7.99h-1.972l-1.828-7.99c0,0.18,0.002,0.438,0.008,0.771
				c0.004,0.334,0.006,0.593,0.006,0.778v6.44h-1.892v-9.522h2.953l1.768,7.487L144.852,46.021z"/>
			<path fill="#EC6624" d="M154.046,46.021h2.296l3.436,9.522h-2.201l-0.641-1.957h-3.577l-0.659,1.957h-2.122L154.046,46.021z
				 M153.911,51.945h2.487l-1.227-3.747L153.911,51.945z"/>
			<path fill="#EC6624" d="M162.6,46.021h2.127l3.855,6.639v-6.639h1.891v9.522h-2.028l-3.954-6.756v6.756H162.6V46.021z"/>
			<path fill="#EC6624" d="M176.775,46.021h2.296l3.436,9.522h-2.2l-0.642-1.957h-3.577l-0.659,1.957h-2.122L176.775,46.021z
				 M176.641,51.945h2.487l-1.228-3.747L176.641,51.945z"/>
			<path fill="#EC6624" d="M191.892,48.992c-0.154-0.65-0.531-1.104-1.127-1.363c-0.333-0.142-0.705-0.213-1.113-0.213
				c-0.782,0-1.425,0.289-1.928,0.867c-0.503,0.579-0.755,1.448-0.755,2.609c0,1.168,0.272,1.996,0.817,2.481
				c0.544,0.485,1.165,0.729,1.859,0.729c0.68,0,1.238-0.191,1.672-0.576c0.435-0.383,0.703-0.884,0.805-1.506h-2.248v-1.588h4.047
				v5.109h-1.346l-0.204-1.188c-0.392,0.45-0.743,0.768-1.055,0.952c-0.535,0.32-1.194,0.482-1.976,0.482
				c-1.288,0-2.342-0.438-3.164-1.311c-0.857-0.879-1.286-2.078-1.286-3.602c0-1.542,0.433-2.777,1.298-3.707
				c0.867-0.93,2.011-1.394,3.433-1.394c1.235,0,2.226,0.306,2.977,0.92c0.749,0.614,1.177,1.38,1.288,2.296H191.892z"/>
			<path fill="#EC6624" d="M204.661,47.707h-5.141v2.022h4.719v1.653h-4.719v2.449h5.378v1.711h-7.36v-9.522h7.124V47.707z"/>
			<path fill="#EC6624" d="M214.54,46.021h2.92v9.522h-1.891v-6.44c0-0.185,0.002-0.444,0.006-0.778
				c0.005-0.334,0.007-0.591,0.007-0.771l-1.84,7.99h-1.972l-1.828-7.99c0,0.18,0.002,0.438,0.009,0.771
				c0.004,0.334,0.006,0.593,0.006,0.778v6.44h-1.893v-9.522h2.953l1.768,7.487L214.54,46.021z"/>
			<path fill="#EC6624" d="M228.142,47.707H223v2.022h4.719v1.653H223v2.449h5.378v1.711h-7.36v-9.522h7.124V47.707z"/>
			<path fill="#EC6624" d="M231.544,46.021h2.127l3.856,6.639v-6.639h1.891v9.522h-2.028l-3.954-6.756v6.756h-1.892V46.021z"/>
			<path fill="#EC6624" d="M250,46.021v1.687h-2.905v7.835h-2.043v-7.835h-2.917v-1.687H250z"/>
		</g>
	</g>
	<g>
		<g>
			<path fill="#413C38" d="M159.804,13.421h4.435v3.024h-29.088v5.362c0,1.774-0.191,3.6-0.578,5.474
				c-0.383,1.875-0.87,3.35-1.46,4.425c-1.289,2.379-3.398,4.341-6.33,5.887v-2.741c1.414-1.574,2.337-3.19,2.774-4.85
				c0.437-1.659,0.653-4.411,0.653-8.255v-8.326h2.321v-1.955c0.066,0,0.145-0.007,0.241-0.02c0.108-0.014,0.274-0.035,0.503-0.062
				c4.314-0.389,7.587-0.833,9.817-1.329c-1.314-0.283-2.305-0.504-2.961-0.666c-1.734-0.403-3.481-0.753-5.241-1.048l-0.507-0.101
				V6.306c0.083,0.014,0.191,0.026,0.324,0.04c0.283,0.04,0.981,0.115,2.096,0.222c2.596,0.255,6.29,0.78,11.089,1.573l1.269,0.221
				c1.639-0.658,3.099-1.344,4.376-2.056h6.472l-0.345,0.242c-1.573,1.128-3.24,2.056-5,2.781c1.331,0.27,2.333,0.471,3.003,0.605
				c0.699,0.134,1.256,0.249,1.676,0.342l0.461,0.101V13.421z M144.381,2.878c-0.133-0.967-0.308-1.936-0.524-2.904h3.793
				c0.737,1.076,1.323,2.043,1.751,2.904h13.992v3.023h-33.546V2.878H144.381z M158.191,13.421l-1.714-0.363
				c-2.621-0.577-5.287-1.175-8.003-1.793c-4.11,0.995-9.313,1.714-15.602,2.157H158.191z M146.724,33.663v-4.072h-8.652v-3.024
				h8.652v-3.448h-6.635c-1.182,1.694-2.804,3.192-4.859,4.497v-2.581c0.94-1.169,1.585-2.238,1.935-3.205
				c0.349-0.968,0.607-2.398,0.765-4.294h3.994c-0.216,1.25-0.392,2.104-0.525,2.56h5.325V17.01h4.754v3.084h10.89v3.024h-10.89
				v3.448h9.841v3.024h-9.841v4.072h12.62v3.023h-30.744v-3.023H146.724z"/>
			<path fill="#413C38" d="M177.067,5.438c-1.976,1.882-4.451,3.427-7.42,4.637V7.435c1.788-1.21,3.132-2.54,4.03-3.992
				c0.565-0.9,1.09-2.083,1.572-3.548h4.821c-0.283,0.86-0.591,1.701-0.928,2.52h9.234v3.024h-5.586
				c0.753,0.94,1.518,2.218,2.3,3.83h-4.841c-0.416-1.719-0.82-2.996-1.206-3.83H177.067z M201.296,13.563h-25.905v4.355h-4.576
				v-7.197h15.324c-0.096-0.619-0.262-1.337-0.503-2.158h2.417V6.668c1.693-1.627,2.824-3.884,3.386-6.774h4.821
				c-0.324,1.143-0.599,1.984-0.828,2.52h11.672v3.024h-7.055c0.753,1.009,1.497,2.285,2.238,3.83h-4.697
				c-0.403-1.64-0.823-2.917-1.251-3.83h-2.862c-1.306,1.372-2.687,2.412-4.155,3.125c0.553,0.793,0.981,1.512,1.293,2.158h15.261
				v7.197h-4.58V13.563z M181.239,24.913v2.601h20.843v9.233h-25.419V16.002h23.223v8.911H181.239z M181.239,22.07h14.072v-3.225
				h-14.072V22.07z M181.239,33.904h16.289v-3.548h-16.289V33.904z"/>
			<path fill="#413C38" d="M220.576,5.358v9.012h3.589v3.205h-3.589v10.382l4.275-0.867v2.984l-13.51,4.293v-4.536L216,28.884
				v-11.31h-4.014V14.37H216V5.358h-4.193V2.152h13.023v3.206H220.576z M234.688,20.921h-8.568V1.366h21.854v19.555h-8.527v4.194
				h8.91v3.205h-8.91v5.161h10.403l-0.021,3.205h-26.167v-3.205h11.026V28.32h-9.05v-3.205h9.05V20.921z M230.696,9.572h4.051v-5
				h-4.051V9.572z M234.747,17.716v-5.12h-4.051v5.12H234.747z M239.327,9.572h4.072v-5h-4.072V9.572z M239.327,17.716h4.072v-5.12
				h-4.072V17.716z"/>
			<g>
				<path fill="#413C38" d="M108.804,9.979c3.016,2.595,7.361,4.319,13.042,5.181v-2.379c-2.868-0.861-5.107-1.751-6.724-2.669
					c-1.616-0.922-3-2.095-4.158-3.52c0.176-0.55,0.323-1.109,0.444-1.673h4.827v3.97h4.218V2.259h-15.706
					c0.187-0.619,0.418-1.405,0.686-2.358h-4.683c-0.634,3.48-2.099,6.087-4.401,7.821v2.338c1.21-0.483,1.938-0.792,2.181-0.927
					c2.139-1.143,3.781-2.546,4.924-4.213h3.171c-0.283,1.074-0.553,1.871-0.809,2.387c-0.254,0.519-0.666,1.066-1.23,1.645
					c-0.891,0.941-1.996,1.699-3.321,2.277c-1.327,0.579-3.179,1.123-5.563,1.633v2.259c2.975-0.404,5.604-1.05,7.884-1.937
					C105.866,12.298,107.605,11.229,108.804,9.979z"/>
				<path fill="#413C38" d="M94.632,6.27c-0.726-1.385-1.336-2.422-1.829-3.115c-0.489-0.692-1.267-1.596-2.33-2.71H86.92
					c1.252,1.841,2.201,3.784,2.846,5.825H94.632z"/>
				<polygon fill="#413C38" points="95.117,7.339 86.135,10.947 86.135,15.422 95.117,10.262 				"/>
				<path fill="#413C38" d="M109.882,32.114h7.823V15.583H89.523v16.531h6.063c-2.396,1.816-5.78,3.001-10.161,3.544v2.506
					c4.389-0.391,7.792-1.074,10.214-2.045c2.34-0.937,4.386-2.271,6.146-4.004h3.202c2.346,1.103,4.203,2.134,5.573,3.083
					c2.233,1.568,3.584,2.473,4.057,2.711h7.39C118.702,35.696,114.66,33.767,109.882,32.114z M94.189,17.962h18.854v2.399H94.189
					V17.962z M94.189,22.559h18.854v2.479H94.189V22.559z M94.189,27.235h18.854v2.5H94.189V27.235z"/>
			</g>
		</g>
		<g>
			<g>
				<polygon fill="#413C38" points="25.376,22.936 35.712,22.936 35.712,3.603 31.493,3.603 31.493,19.911 21.155,19.911 
					21.155,37.753 25.376,37.753 25.376,28.5 28.989,28.5 28.989,37.792 33.154,37.792 33.154,28.5 37.168,28.5 37.168,25.476 
					25.376,25.476 				"/>
				<path fill="#413C38" d="M28.323,1.225H9.65v16.912h18.673V1.225z M13.587,3.965h10.799v2.218H13.587V3.965z M13.587,8.562
					h10.799v2.158H13.587V8.562z M13.587,15.396v-2.298h10.799v2.298H13.587z"/>
				<path fill="#413C38" d="M6.338,3.603H2.119v19.333h10.438v2.541H0.242V28.5h3.957c-0.041,0.686-0.151,1.385-0.323,2.097
					c-0.282,1.143-0.711,2.07-1.281,2.781C2.021,34.089,1.157,34.763,0,35.394v2.398c3.297-0.888,5.618-2.398,6.964-4.536
					c0.674-1.048,1.186-2.636,1.535-4.757h4.058v9.253h4.217V19.911H6.338V3.603z"/>
			</g>
			<path fill="#413C38" d="M50.196,21.239c0.027-0.646,0.042-1.243,0.042-1.793v-3.468h-6.089v-3.205h6.089v-5h-7.036V4.568h7.036
				V0.032h4.756v4.536h6.614v3.205h-6.614v5h5.987v3.205h-5.987v3.527c0,0.524-0.013,1.102-0.04,1.734h7.259v3.205h-7.581
				c-0.566,3.024-1.701,5.524-3.407,7.5c-1.707,1.976-4.415,3.93-8.125,5.866v-2.923c1.519-0.967,2.645-1.801,3.377-2.5
				c0.732-0.698,1.375-1.558,1.926-2.58c0.726-1.371,1.242-3.158,1.552-5.363h-7.277v-3.205H50.196z M68.321,4.527v33.344h-4.578
				V1.321h15.524v2.723c-0.389,1.116-0.988,2.95-1.795,5.503c-0.308,0.995-1.175,2.917-2.6,5.766c1.949,2.23,3.165,3.856,3.65,4.877
				c0.726,1.533,1.087,3.274,1.087,5.223c0,2.997-0.544,5.04-1.631,6.128c-0.646,0.646-1.801,0.968-3.468,0.968h-3.664l-0.626-3.206
				h2.899c0.847,0,1.448-0.279,1.803-0.836c0.356-0.559,0.534-1.509,0.534-2.854c0-1.881-0.328-3.42-0.988-4.616
				c-0.659-1.195-2.123-2.922-4.395-5.181c1.627-3.225,2.664-5.392,3.116-6.501c0.449-1.109,0.957-2.705,1.521-4.788H68.321z"/>
		</g>
	</g>
</g>
</svg>
