<?xml version="1.0" encoding="utf-8"?>
<!-- Generator: Adobe Illustrator 16.0.0, SVG Export Plug-In . SVG Version: 6.00 Build 0)  -->
<!DOCTYPE svg PUBLIC "-//W3C//DTD SVG 1.1//EN" "http://www.w3.org/Graphics/SVG/1.1/DTD/svg11.dtd">
<svg version="1.1" id="圖層_1" xmlns="http://www.w3.org/2000/svg" xmlns:xlink="http://www.w3.org/1999/xlink" x="0px" y="0px"
	 width="192px" height="57.497px" viewBox="0 0 192 57.497" enable-background="new 0 0 192 57.497" xml:space="preserve">
<g>
	<g>
		<g>
			<path fill="#EC6624" d="M5.854,47.644c0.7,0.227,1.266,0.642,1.701,1.245c0.349,0.485,0.586,1.014,0.712,1.58
				c0.128,0.566,0.19,1.108,0.19,1.619c0,1.305-0.268,2.406-0.8,3.311c-0.723,1.218-1.84,1.827-3.35,1.827H0v-9.794h4.308
				C4.926,47.442,5.441,47.513,5.854,47.644z M2.027,49.134v6.392h1.927c0.986,0,1.672-0.478,2.062-1.429
				c0.214-0.524,0.321-1.145,0.321-1.867c0-0.997-0.161-1.763-0.479-2.296c-0.319-0.534-0.954-0.8-1.904-0.8H2.027z"/>
			<path fill="#EC6624" d="M12.594,57.226h-2.075v-9.794h2.075V57.226z"/>
			<path fill="#EC6624" d="M15.175,47.432h2.188l3.965,6.829v-6.829h1.944v9.794h-2.085l-4.066-6.949v6.949h-1.946V47.432z"/>
			<path fill="#EC6624" d="M32.615,50.488c-0.158-0.668-0.545-1.136-1.159-1.403c-0.342-0.146-0.726-0.218-1.145-0.218
				c-0.804,0-1.465,0.297-1.982,0.892s-0.776,1.488-0.776,2.682c0,1.202,0.28,2.054,0.84,2.554c0.56,0.499,1.198,0.749,1.912,0.749
				c0.7,0,1.273-0.196,1.72-0.59s0.723-0.911,0.828-1.551h-2.312v-1.632h4.162v5.255h-1.384l-0.209-1.224
				c-0.402,0.464-0.764,0.789-1.084,0.979c-0.55,0.329-1.228,0.496-2.032,0.496c-1.324,0-2.409-0.449-3.253-1.347
				c-0.881-0.905-1.322-2.14-1.322-3.705c0-1.585,0.445-2.855,1.335-3.812c0.892-0.956,2.068-1.435,3.531-1.435
				c1.271,0,2.289,0.316,3.061,0.947c0.77,0.631,1.21,1.418,1.324,2.361H32.615z"/>
			<path fill="#EC6624" d="M44.809,48.476c0.306,0.417,0.46,0.915,0.46,1.495c0,0.597-0.156,1.078-0.464,1.441
				c-0.171,0.203-0.426,0.39-0.762,0.559c0.509,0.182,0.894,0.468,1.155,0.863c0.259,0.394,0.387,0.873,0.387,1.436
				c0,0.58-0.147,1.1-0.442,1.56c-0.19,0.306-0.426,0.563-0.708,0.771c-0.319,0.24-0.695,0.402-1.129,0.492
				c-0.434,0.088-0.903,0.133-1.412,0.133h-4.5v-9.794h4.827C43.438,47.451,44.302,47.798,44.809,48.476z M39.387,49.134v2.158
				h2.428c0.432,0,0.785-0.081,1.054-0.241c0.272-0.163,0.407-0.449,0.407-0.862c0-0.455-0.18-0.757-0.537-0.902
				c-0.308-0.103-0.702-0.152-1.181-0.152H39.387z M39.387,52.914v2.611h2.423c0.434,0,0.77-0.059,1.012-0.174
				c0.438-0.214,0.657-0.62,0.657-1.223c0-0.51-0.212-0.858-0.636-1.049c-0.237-0.106-0.571-0.162-0.999-0.166H39.387z"/>
			<path fill="#EC6624" d="M55.738,56.355c-0.755,0.761-1.846,1.142-3.272,1.142c-1.429,0-2.52-0.381-3.272-1.142
				c-1.012-0.936-1.519-2.283-1.519-4.041c0-1.792,0.507-3.14,1.519-4.038c0.753-0.761,1.844-1.142,3.272-1.142
				c1.427,0,2.518,0.381,3.272,1.142c1.007,0.898,1.512,2.246,1.512,4.038C57.25,54.072,56.746,55.42,55.738,56.355z M54.434,54.866
				c0.485-0.597,0.729-1.448,0.729-2.552c0-1.097-0.244-1.946-0.729-2.547c-0.485-0.6-1.143-0.9-1.968-0.9
				c-0.828,0-1.486,0.299-1.979,0.898c-0.492,0.597-0.74,1.447-0.74,2.549c0,1.104,0.248,1.955,0.74,2.552
				c0.492,0.599,1.15,0.896,1.979,0.896C53.291,55.763,53.948,55.465,54.434,54.866z"/>
			<path fill="#EC6624" d="M59.475,47.432h2.188l3.965,6.829v-6.829h1.944v9.794h-2.085l-4.066-6.949v6.949h-1.946V47.432z"/>
			<path fill="#EC6624" d="M75.672,48.456c0.805-0.806,1.829-1.21,3.071-1.21c1.662,0,2.879,0.541,3.647,1.621
				c0.423,0.607,0.652,1.217,0.685,1.826h-2.087c-0.133-0.469-0.304-0.823-0.511-1.063c-0.373-0.424-0.924-0.638-1.653-0.638
				c-0.745,0-1.331,0.302-1.76,0.9c-0.428,0.601-0.644,1.45-0.644,2.547c0,1.1,0.227,1.923,0.68,2.469
				c0.454,0.548,1.029,0.821,1.726,0.821c0.716,0,1.262-0.235,1.638-0.704c0.208-0.252,0.381-0.631,0.518-1.138h2.073
				c-0.177,1.069-0.635,1.936-1.371,2.605c-0.736,0.667-1.677,1.003-2.826,1.003c-1.42,0-2.539-0.451-3.352-1.356
				c-0.813-0.906-1.221-2.151-1.221-3.731C74.284,50.7,74.748,49.383,75.672,48.456z"/>
			<path fill="#EC6624" d="M93.097,56.355c-0.755,0.761-1.846,1.142-3.272,1.142c-1.429,0-2.52-0.381-3.272-1.142
				c-1.012-0.936-1.519-2.283-1.519-4.041c0-1.792,0.507-3.14,1.519-4.038c0.753-0.761,1.843-1.142,3.272-1.142
				c1.426,0,2.517,0.381,3.272,1.142c1.007,0.898,1.512,2.246,1.512,4.038C94.609,54.072,94.104,55.42,93.097,56.355z
				 M91.792,54.866c0.486-0.597,0.729-1.448,0.729-2.552c0-1.097-0.244-1.946-0.729-2.547c-0.485-0.6-1.142-0.9-1.967-0.9
				c-0.828,0-1.487,0.299-1.979,0.898c-0.492,0.597-0.74,1.447-0.74,2.549c0,1.104,0.248,1.955,0.74,2.552
				c0.492,0.599,1.15,0.896,1.979,0.896C90.65,55.763,91.307,55.465,91.792,54.866z"/>
			<path fill="#EC6624" d="M96.834,47.432h2.188l3.965,6.829v-6.829h1.944v9.794h-2.085l-4.066-6.949v6.949h-1.946V47.432z"/>
			<path fill="#EC6624" d="M109.062,54.201c0.064,0.449,0.19,0.783,0.379,1.003c0.346,0.404,0.938,0.605,1.779,0.605
				c0.503,0,0.911-0.054,1.224-0.158c0.597-0.205,0.894-0.584,0.894-1.138c0-0.323-0.146-0.573-0.438-0.751
				c-0.291-0.171-0.753-0.325-1.386-0.458l-1.082-0.232c-1.063-0.229-1.792-0.479-2.19-0.751c-0.674-0.451-1.01-1.157-1.01-2.118
				c0-0.877,0.33-1.605,0.988-2.186c0.659-0.582,1.626-0.87,2.902-0.87c1.065,0,1.975,0.273,2.728,0.819
				c0.75,0.547,1.146,1.341,1.183,2.383h-2.006c-0.037-0.589-0.306-1.008-0.806-1.256c-0.334-0.165-0.747-0.246-1.243-0.246
				c-0.552,0-0.992,0.107-1.319,0.318c-0.329,0.212-0.494,0.51-0.494,0.89c0,0.352,0.163,0.612,0.485,0.785
				c0.21,0.116,0.652,0.25,1.328,0.404l1.752,0.406c0.77,0.178,1.346,0.413,1.729,0.71c0.594,0.46,0.894,1.128,0.894,2
				c0,0.895-0.353,1.639-1.059,2.229c-0.706,0.593-1.702,0.888-2.99,0.888c-1.315,0-2.349-0.291-3.104-0.874
				c-0.753-0.582-1.129-1.382-1.129-2.402H109.062z"/>
			<path fill="#EC6624" d="M124.735,47.432v1.734h-2.988v8.06h-2.101v-8.06h-3v-1.734H124.735z"/>
			<path fill="#EC6624" d="M133.023,47.684c0.368,0.156,0.68,0.386,0.935,0.685c0.211,0.248,0.378,0.524,0.502,0.823
				c0.124,0.302,0.184,0.646,0.184,1.031c0,0.465-0.12,0.922-0.359,1.371c-0.237,0.451-0.633,0.768-1.185,0.954
				c0.459,0.182,0.787,0.44,0.979,0.772c0.193,0.336,0.289,0.847,0.289,1.533v0.656c0,0.449,0.018,0.751,0.054,0.911
				c0.056,0.253,0.184,0.438,0.385,0.559v0.246h-2.304c-0.062-0.218-0.106-0.394-0.134-0.526c-0.053-0.273-0.083-0.554-0.088-0.843
				l-0.015-0.911c-0.008-0.624-0.117-1.039-0.329-1.249c-0.212-0.207-0.607-0.313-1.189-0.313h-2.038v3.842h-2.041v-9.794h4.778
				C132.129,47.446,132.655,47.53,133.023,47.684z M128.709,49.134v2.631h2.246c0.447,0,0.78-0.053,1.005-0.16
				c0.394-0.187,0.59-0.554,0.59-1.104c0-0.595-0.19-0.99-0.571-1.195c-0.216-0.116-0.537-0.172-0.967-0.172H128.709z"/>
			<path fill="#EC6624" d="M137.31,47.432h2.121v6.015c0,0.674,0.082,1.163,0.244,1.474c0.25,0.55,0.8,0.823,1.647,0.823
				c0.84,0,1.388-0.273,1.64-0.823c0.163-0.311,0.244-0.8,0.244-1.474v-6.015h2.12v6.019c0,1.042-0.165,1.853-0.494,2.432
				c-0.612,1.063-1.784,1.596-3.51,1.596c-1.728,0-2.9-0.532-3.519-1.596c-0.33-0.579-0.494-1.39-0.494-2.432V47.432z"/>
			<path fill="#EC6624" d="M148.951,48.456c0.804-0.806,1.829-1.21,3.071-1.21c1.662,0,2.879,0.541,3.646,1.621
				c0.424,0.607,0.652,1.217,0.685,1.826h-2.087c-0.133-0.469-0.304-0.823-0.511-1.063c-0.372-0.424-0.924-0.638-1.653-0.638
				c-0.744,0-1.33,0.302-1.76,0.9c-0.428,0.601-0.644,1.45-0.644,2.547c0,1.1,0.227,1.923,0.681,2.469
				c0.453,0.548,1.028,0.821,1.726,0.821c0.717,0,1.262-0.235,1.639-0.704c0.207-0.252,0.381-0.631,0.518-1.138h2.072
				c-0.178,1.069-0.635,1.936-1.371,2.605c-0.735,0.667-1.677,1.003-2.825,1.003c-1.42,0-2.539-0.451-3.352-1.356
				c-0.813-0.906-1.221-2.151-1.221-3.731C147.563,50.7,148.027,49.383,148.951,48.456z"/>
			<path fill="#EC6624" d="M165.944,47.432v1.734h-2.988v8.06h-2.101v-8.06h-3v-1.734H165.944z"/>
			<path fill="#EC6624" d="M169.736,57.226h-2.075v-9.794h2.075V57.226z"/>
			<path fill="#EC6624" d="M180.043,56.355c-0.755,0.761-1.846,1.142-3.272,1.142c-1.429,0-2.52-0.381-3.272-1.142
				c-1.012-0.936-1.519-2.283-1.519-4.041c0-1.792,0.507-3.14,1.519-4.038c0.752-0.761,1.843-1.142,3.272-1.142
				c1.426,0,2.517,0.381,3.272,1.142c1.008,0.898,1.513,2.246,1.513,4.038C181.556,54.072,181.051,55.42,180.043,56.355z
				 M178.738,54.866c0.486-0.597,0.729-1.448,0.729-2.552c0-1.097-0.244-1.946-0.729-2.547c-0.485-0.6-1.142-0.9-1.967-0.9
				c-0.828,0-1.487,0.299-1.979,0.898c-0.492,0.597-0.74,1.447-0.74,2.549c0,1.104,0.248,1.955,0.74,2.552
				c0.492,0.599,1.151,0.896,1.979,0.896C177.597,55.763,178.253,55.465,178.738,54.866z"/>
			<path fill="#EC6624" d="M183.778,47.432h2.188l3.965,6.829v-6.829h1.944v9.794h-2.085l-4.066-6.949v6.949h-1.946V47.432z"/>
		</g>
	</g>
	<g>
		<g>
			<path fill="#413C38" d="M94.291,32.006c-0.939-1.328-1.703-2.748-2.291-4.26c-0.588-1.515-1.253-3.793-2-6.832h3.94
				c0.539,3.055,1.339,5.557,2.404,7.506c0.332-0.927,0.55-1.808,0.652-2.645c0.105-0.836,0.156-2.132,0.156-3.888v-4.27h-6.387
				v-3.007c2.392-2.875,4.396-5.944,6.015-9.206h-6.594V2.109h11.464v3.339c-1.878,3.551-4.049,6.579-6.508,9.079h6.53v7.112
				c0,2.295-0.218,4.25-0.652,5.866c-0.437,1.617-1.138,3.069-2.104,4.355c1.963,1.88,4.739,2.818,8.335,2.818h21.146v3.11h-21.583
				c-4.147,0-7.567-1.106-10.262-3.317c-1.66,1.549-4.015,3.033-7.071,4.457v-3.213C91.5,34.64,93.102,33.4,94.291,32.006z
				 M111.624,5.511h-7.815V2.689h7.815V0.037h4.705v2.652h8.979v5.826h2.964v2.633h-2.964v5.909h-8.979v3.274h9.456v2.821h-9.456
				v3.463h11.238v2.819h-11.238v4.25h-4.705v-4.25h-9.537v-2.819h9.537v-3.463h-8.354v-2.821h8.354v-3.274h-7.815v-2.818h7.815
				v-3.091h-9.497V8.516h9.497V5.511z M116.329,5.511v3.005h4.458V5.511H116.329z M120.787,11.148h-4.458v3.091h4.458V11.148z"/>
			<path fill="#413C38" d="M132.463,5.861h16.317v3.109h-16.317V5.861z M134.061,15.172v-3.11h13.248v3.11H134.061z M134.061,21.392
				v-3.11h13.248v3.11H134.061z M147.309,37.832h-13.248V24.604h13.248V37.832z M140.528,0.202c1.202,1.632,2.137,3.282,2.8,4.955
				h-4.851c-0.167-1.645-0.499-3.298-0.997-4.955H140.528z M142.975,27.714h-4.582v7.009h4.582V27.714z M157.279,31.716
				c-2.652-2.336-4.733-5.321-6.239-8.956h4.975c0.706,1.686,1.324,2.961,1.856,3.824c0.53,0.864,1.253,1.768,2.167,2.706
				c0.081-0.083,0.18-0.192,0.288-0.331c1.896-2.045,3.256-4.616,4.085-7.713h-14.886V17.95h20.09v0.477
				c-0.235,1.905-0.539,3.472-0.913,4.694c-0.372,1.224-0.939,2.479-1.698,3.765c-0.981,1.673-2.351,3.303-4.106,4.892
				c1.769,1.258,4.568,2.593,8.397,4.002v3.007c-4.299-1.3-7.995-2.938-11.092-4.915c-3.041,2.047-6.849,3.739-11.423,5.08v-2.965
				C152.581,34.494,155.415,33.069,157.279,31.716z M156.659,4.557v2.509c0,2.543-0.547,4.568-1.638,6.074
				c-1.093,1.506-3.063,2.978-5.91,4.417v-3.008c0.789-0.759,1.396-1.431,1.824-2.013c0.815-1.091,1.224-2.845,1.224-5.264V1.446
				H166.9v11.715h4.457l-0.787,3.109h-5.08c-2.087,0-3.125-0.926-3.11-2.778V4.557H156.659z"/>
		</g>
		<g>
			<g>
				<polygon fill="#413C38" points="28.361,23.69 38.99,23.69 38.99,3.808 34.651,3.808 34.651,20.581 24.019,20.581 24.019,38.928 
					28.361,38.928 28.361,29.412 32.075,29.412 32.075,38.971 36.359,38.971 36.359,29.412 40.487,29.412 40.487,26.302 
					28.361,26.302 				"/>
				<path fill="#413C38" d="M31.391,1.363H12.187v17.393h19.204V1.363z M16.236,4.182h11.106v2.28H16.236V4.182z M16.236,8.909
					h11.106v2.218H16.236V8.909z M16.236,15.938v-2.363h11.106v2.363H16.236z"/>
				<path fill="#413C38" d="M8.782,3.808h-4.34V23.69h10.732v2.611H2.512v3.11h4.069c-0.042,0.706-0.154,1.424-0.331,2.156
					c-0.291,1.176-0.732,2.13-1.319,2.861c-0.589,0.731-1.478,1.425-2.668,2.072v2.469c3.392-0.914,5.778-2.469,7.161-4.665
					c0.693-1.078,1.221-2.71,1.578-4.894h4.173v9.516h4.34V20.581H8.782V3.808z"/>
			</g>
			<path fill="#413C38" d="M53.91,21.949c0.028-0.665,0.043-1.278,0.043-1.846v-3.565H47.69V13.24h6.263v-5.14h-7.235V4.805h7.235
				V0.14h4.892v4.665h6.801v3.296h-6.801v5.14h6.157v3.298h-6.157v3.628c0,0.539-0.013,1.133-0.041,1.783h7.463v3.296h-7.796
				c-0.581,3.11-1.749,5.681-3.502,7.713c-1.756,2.032-4.541,4.043-8.356,6.031v-3.005c1.561-0.994,2.721-1.852,3.473-2.57
				c0.753-0.719,1.414-1.604,1.981-2.654c0.747-1.41,1.277-3.247,1.595-5.515h-7.483v-3.296H53.91z M72.55,4.762v34.292h-4.708
				V1.466h15.964v2.8c-0.4,1.146-1.016,3.033-1.846,5.657c-0.317,1.024-1.208,3.001-2.673,5.931
				c2.004,2.293,3.255,3.966,3.753,5.016c0.747,1.576,1.119,3.367,1.119,5.371c0,3.082-0.561,5.183-1.679,6.303
				c-0.663,0.663-1.852,0.995-3.565,0.995h-3.768l-0.644-3.296h2.98c0.871,0,1.489-0.287,1.854-0.86
				c0.366-0.575,0.55-1.553,0.55-2.935c0-1.936-0.338-3.519-1.016-4.748c-0.678-1.229-2.184-3.005-4.52-5.328
				c1.673-3.317,2.74-5.546,3.204-6.686c0.462-1.141,0.983-2.783,1.563-4.924H72.55z"/>
		</g>
	</g>
</g>
</svg>
