<?xml version="1.0" encoding="utf-8"?>
<!-- Generator: Adobe Illustrator 16.0.0, SVG Export Plug-In . SVG Version: 6.00 Build 0)  -->
<!DOCTYPE svg PUBLIC "-//W3C//DTD SVG 1.1//EN" "http://www.w3.org/Graphics/SVG/1.1/DTD/svg11.dtd">
<svg version="1.1" id="圖層_1" xmlns="http://www.w3.org/2000/svg" xmlns:xlink="http://www.w3.org/1999/xlink" x="0px" y="0px"
	 width="174px" height="58.727px" viewBox="0 0 174 58.727" enable-background="new 0 0 174 58.727" xml:space="preserve">
<g>
	<g>
		<g>
			<path fill="#EC6624" d="M7.542,48.712c0.708,0.229,1.281,0.648,1.72,1.257c0.353,0.493,0.593,1.025,0.72,1.599
				c0.13,0.574,0.193,1.121,0.193,1.641c0,1.317-0.271,2.434-0.809,3.346c-0.732,1.233-1.861,1.849-3.389,1.849H1.622v-9.905h4.356
				C6.604,48.506,7.125,48.578,7.542,48.712z M3.672,50.217v6.466h1.949c0.998,0,1.692-0.481,2.086-1.446
				c0.216-0.527,0.324-1.157,0.324-1.889c0-1.006-0.162-1.78-0.485-2.321c-0.322-0.538-0.965-0.81-1.925-0.81H3.672z"/>
			<path fill="#EC6624" d="M14.359,58.402h-2.099v-9.905h2.099V58.402z"/>
			<path fill="#EC6624" d="M16.971,48.497h2.213l4.011,6.906v-6.906h1.967v9.905h-2.11l-4.112-7.027v7.027h-1.969V48.497z"/>
			<path fill="#EC6624" d="M34.611,51.59c-0.16-0.678-0.552-1.148-1.172-1.42c-0.346-0.147-0.734-0.221-1.157-0.221
				c-0.814,0-1.482,0.302-2.005,0.902c-0.523,0.602-0.786,1.506-0.786,2.713c0,1.216,0.284,2.077,0.851,2.581
				c0.567,0.506,1.211,0.76,1.935,0.76c0.708,0,1.286-0.2,1.739-0.6c0.451-0.397,0.73-0.92,0.837-1.567h-2.339v-1.652h4.209v5.316
				h-1.399l-0.212-1.236c-0.407,0.468-0.772,0.799-1.097,0.989c-0.556,0.336-1.242,0.502-2.056,0.502
				c-1.339,0-2.436-0.454-3.291-1.362c-0.892-0.914-1.336-2.161-1.336-3.747c0-1.604,0.449-2.889,1.349-3.855
				c0.902-0.968,2.092-1.45,3.572-1.45c1.285,0,2.315,0.318,3.096,0.956c0.779,0.641,1.225,1.437,1.339,2.392H34.611z"/>
			<path fill="#EC6624" d="M46.944,49.554c0.31,0.419,0.465,0.923,0.465,1.51c0,0.605-0.158,1.092-0.469,1.459
				c-0.174,0.207-0.431,0.395-0.771,0.563c0.515,0.184,0.904,0.476,1.168,0.874c0.262,0.397,0.392,0.883,0.392,1.451
				c0,0.587-0.149,1.115-0.448,1.58c-0.192,0.31-0.43,0.568-0.716,0.779c-0.323,0.242-0.704,0.409-1.142,0.496
				c-0.439,0.092-0.914,0.136-1.428,0.136h-4.552v-9.905h4.883C45.558,48.516,46.432,48.868,46.944,49.554z M41.46,50.217v2.186
				h2.455c0.437,0,0.794-0.082,1.067-0.247c0.273-0.162,0.41-0.454,0.41-0.869c0-0.461-0.182-0.766-0.543-0.915
				c-0.312-0.102-0.709-0.154-1.194-0.154H41.46z M41.46,54.04v2.643h2.451c0.44,0,0.78-0.06,1.024-0.177
				c0.443-0.213,0.664-0.626,0.664-1.234c0-0.515-0.214-0.87-0.642-1.063c-0.24-0.108-0.578-0.164-1.011-0.169H41.46z"/>
			<path fill="#EC6624" d="M57.999,57.521c-0.763,0.773-1.866,1.158-3.31,1.158c-1.445,0-2.548-0.385-3.31-1.158
				c-1.023-0.945-1.536-2.306-1.536-4.084c0-1.814,0.513-3.176,1.536-4.086c0.762-0.771,1.865-1.155,3.31-1.155
				c1.443,0,2.547,0.384,3.31,1.155c1.02,0.91,1.53,2.271,1.53,4.086C59.529,55.215,59.019,56.575,57.999,57.521z M56.68,56.018
				c0.491-0.606,0.737-1.467,0.737-2.581c0-1.112-0.247-1.971-0.737-2.576c-0.491-0.608-1.156-0.911-1.991-0.911
				c-0.837,0-1.504,0.303-2.001,0.906c-0.498,0.605-0.749,1.465-0.749,2.581c0,1.114,0.251,1.975,0.749,2.581
				c0.497,0.604,1.164,0.906,2.001,0.906C55.524,56.924,56.189,56.622,56.68,56.018z"/>
			<path fill="#EC6624" d="M61.779,48.497h2.213l4.011,6.906v-6.906h1.967v9.905H67.86l-4.113-7.027v7.027h-1.969V48.497z"/>
			<path fill="#EC6624" d="M77.198,48.497h2.111v8.125h5.045v1.78h-7.157V48.497z"/>
			<path fill="#EC6624" d="M89.336,48.497h2.389l3.574,9.905H93.01l-0.667-2.036h-3.721l-0.686,2.036H85.73L89.336,48.497z
				 M89.196,54.659h2.587l-1.277-3.896L89.196,54.659z"/>
			<path fill="#EC6624" d="M97.222,48.497h2.213l4.011,6.906v-6.906h1.967v9.905h-2.11l-4.112-7.027v7.027h-1.969V48.497z"/>
			<path fill="#EC6624" d="M113.988,48.712c0.708,0.229,1.281,0.648,1.72,1.257c0.352,0.493,0.593,1.025,0.72,1.599
				c0.13,0.574,0.193,1.121,0.193,1.641c0,1.317-0.271,2.434-0.809,3.346c-0.731,1.233-1.861,1.849-3.388,1.849h-4.357v-9.905h4.357
				C113.049,48.506,113.571,48.578,113.988,48.712z M110.119,50.217v6.466h1.949c0.998,0,1.692-0.481,2.085-1.446
				c0.216-0.527,0.324-1.157,0.324-1.889c0-1.006-0.162-1.78-0.484-2.321c-0.322-0.538-0.964-0.81-1.925-0.81H110.119z"/>
		</g>
	</g>
	<g>
		<g>
			<path fill="#413C38" d="M124.241,36.101h4.613v2.664H89.931v-2.664h4.553V17.5h10.169l0.567-2.199H90.75v-2.665h15.163
				l0.565-2.244h4.802l-0.523,2.244h17.217v2.665h-17.824l-0.504,2.199h14.596V36.101z M91.987,10.371V2.045h34.77v8.326H91.987z
				 M102.222,7.896V4.52h-5.664v3.377H102.222z M119.479,36.101V19.976H99.243v2.287h21.677v2.284H99.243v2.287h21.677v2.284H99.243
				v2.286h21.677v2.287H99.243v2.409H119.479z M106.603,7.896h5.495V4.52h-5.495V7.896z M116.481,7.896h5.705V4.52h-5.705V7.896z"/>
			<path fill="#413C38" d="M142.383,13.915v15.832l4.321-0.858v3.124l-13.316,4.319v-4.821l4.236-0.84V13.915h-3.985v-3.333h3.985
				V0.598h4.76v9.984h4.132v3.333l2.516-0.839V4.627h4.571v6.961l4.321-1.407V0.557h4.571v8.136l9.352-3.06v17.698
				c0,1.454-0.342,2.481-1.028,3.082c-0.684,0.603-1.858,0.902-3.522,0.902h-3.083l-0.861-3.333h3.922V10.748l-4.78,1.573v18.958
				h-4.571V13.81l-4.321,1.406v20.151h15.393v-5.87L173,30.608v4.822c0,1.161-0.255,1.996-0.763,2.507
				c-0.511,0.51-1.349,0.765-2.508,0.765h-17.426c-1.162,0-1.997-0.255-2.505-0.765c-0.51-0.511-0.766-1.346-0.766-2.507V16.704
				l-3.44,1.132v-3.629l0.902-0.292H142.383z"/>
		</g>
		<g>
			<g>
				<polygon fill="#413C38" points="28.007,24.483 38.759,24.483 38.759,4.373 34.37,4.373 34.37,21.339 23.617,21.339 
					23.617,39.896 28.007,39.896 28.007,30.271 31.765,30.271 31.765,39.937 36.097,39.937 36.097,30.271 40.273,30.271 
					40.273,27.125 28.007,27.125 				"/>
				<path fill="#413C38" d="M31.073,1.898H11.648v17.595h19.424V1.898z M15.744,4.751h11.233v2.307H15.744V4.751z M15.744,9.532
					h11.233v2.244H15.744V9.532z M15.744,16.641v-2.39h11.233v2.39H15.744z"/>
				<path fill="#413C38" d="M8.204,4.373H3.814v20.11H14.67v2.642H1.861v3.146h4.117c-0.042,0.711-0.157,1.44-0.336,2.18
					c-0.293,1.19-0.741,2.153-1.333,2.896c-0.596,0.74-1.495,1.441-2.699,2.096v2.494c3.43-0.921,5.844-2.494,7.243-4.718
					c0.701-1.09,1.235-2.741,1.597-4.947h4.221v9.624h4.389V21.339H8.204V4.373z"/>
			</g>
			<path fill="#413C38" d="M53.815,22.723c0.028-0.67,0.043-1.294,0.043-1.866v-3.607h-6.335v-3.334h6.335v-5.2h-7.319V5.381h7.319
				V0.662h4.946v4.719h6.879v3.334h-6.879v5.2h6.229v3.334h-6.229v3.669c0,0.546-0.011,1.147-0.04,1.805h7.549v3.334h-7.885
				c-0.588,3.146-1.769,5.746-3.544,7.801c-1.776,2.056-4.592,4.089-8.452,6.104v-3.042c1.579-1.006,2.752-1.873,3.514-2.6
				c0.761-0.726,1.43-1.621,2.003-2.684c0.755-1.425,1.291-3.286,1.614-5.579h-7.57v-3.334H53.815z M72.667,5.339v34.686h-4.762
				V2.004h16.147v2.832c-0.404,1.162-1.027,3.069-1.867,5.725c-0.32,1.034-1.222,3.033-2.704,5.997
				c2.027,2.32,3.292,4.014,3.796,5.074c0.755,1.596,1.131,3.406,1.131,5.433c0,3.118-0.566,5.241-1.698,6.374
				c-0.671,0.672-1.874,1.008-3.607,1.008h-3.81l-0.651-3.337h3.014c0.88,0,1.506-0.289,1.875-0.869
				c0.371-0.579,0.557-1.568,0.557-2.968c0-1.956-0.342-3.557-1.028-4.801c-0.686-1.243-2.209-3.042-4.571-5.391
				c1.692-3.354,2.771-5.608,3.24-6.764c0.468-1.15,0.996-2.812,1.583-4.979H72.667z"/>
		</g>
	</g>
</g>
</svg>
